<svg width="47" height="48" viewBox="0 0 47 48" fill="none" xmlns="http://www.w3.org/2000/svg">
<path d="M9.25759 6.98184C8.83032 6.98184 8.54547 6.69093 8.54547 6.25457V1.45457C8.54547 1.0182 8.83032 0.727295 9.25759 0.727295C9.68487 0.727295 9.96971 1.0182 9.96971 1.45457V6.25457C9.96971 6.69093 9.61365 6.98184 9.25759 6.98184ZM23.5 6.98184C23.0727 6.98184 22.7879 6.69093 22.7879 6.25457V1.45457C22.7879 1.0182 23.0727 0.727295 23.5 0.727295C23.9273 0.727295 24.2121 1.0182 24.2121 1.45457V6.25457C24.2121 6.69093 23.8561 6.98184 23.5 6.98184ZM37.7424 6.98184C37.3152 6.98184 37.0303 6.69093 37.0303 6.25457V1.45457C37.0303 1.0182 37.3152 0.727295 37.7424 0.727295C38.1697 0.727295 38.4546 1.0182 38.4546 1.45457V6.25457C38.4546 6.69093 38.1697 6.98184 37.7424 6.98184Z" fill="#686195"/>
<path d="M45.0773 6.18186V10.3273H1.92273V6.18186C1.92273 4.50914 3.27576 3.12732 4.91364 3.12732H7.12121V6.25459C7.12121 7.49096 8.04697 8.43641 9.25758 8.43641C10.4682 8.43641 11.3939 7.49096 11.3939 6.25459V3.12732H21.3636V6.25459C21.3636 7.49096 22.2894 8.43641 23.5 8.43641C24.7106 8.43641 25.6364 7.49096 25.6364 6.25459V3.12732H35.6061V6.25459C35.6061 7.49096 36.5318 8.43641 37.7424 8.43641C38.953 8.43641 39.8788 7.49096 39.8788 6.25459V3.12732H42.0864C43.7242 3.12732 45.0773 4.50914 45.0773 6.18186ZM29.8379 25.6H32.1879V27.491H29.8379V25.6ZM15.1682 34.7637H17.5182V36.6546H15.1682V34.7637Z" fill="#686195"/>
<path d="M7.33485 25.6V27.491H9.68485V25.6H7.33485ZM14.8121 25.6V27.491H17.1621V25.6H14.8121ZM14.8121 25.6V27.491H17.1621V25.6H14.8121ZM7.33485 25.6V27.491H9.68485V25.6H7.33485ZM7.33485 25.6V27.491H9.68485V25.6H7.33485ZM7.69091 34.7637V36.6546H10.0409V34.7637H7.69091ZM14.8121 25.6V27.491H17.1621V25.6H14.8121ZM22.3606 25.6V27.491H24.7106V25.6H22.3606ZM22.3606 25.6V27.491H24.7106V25.6H22.3606ZM14.8121 25.6V27.491H17.1621V25.6H14.8121ZM7.69091 34.7637V36.6546H10.0409V34.7637H7.69091ZM7.33485 25.6V27.491H9.68485V25.6H7.33485ZM7.33485 25.6V27.491H9.68485V25.6H7.33485ZM7.69091 34.7637V36.6546H10.0409V34.7637H7.69091ZM14.8121 25.6V27.491H17.1621V25.6H14.8121ZM22.0045 16.3637V18.2546H24.3545V16.3637H22.0045ZM22.3606 25.6V27.491H24.7106V25.6H22.3606ZM37.3152 25.6V27.491H39.6652V25.6H37.3152ZM37.3152 25.6V27.491H39.6652V25.6H37.3152ZM22.3606 25.6V27.491H24.7106V25.6H22.3606ZM22.0045 16.3637V18.2546H24.3545V16.3637H22.0045ZM14.8121 25.6V27.491H17.1621V25.6H14.8121ZM7.69091 34.7637V36.6546H10.0409V34.7637H7.69091ZM7.33485 25.6V27.491H9.68485V25.6H7.33485ZM7.33485 25.6V27.491H9.68485V25.6H7.33485ZM7.69091 34.7637V36.6546H10.0409V34.7637H7.69091ZM14.8121 25.6V27.491H17.1621V25.6H14.8121ZM22.0045 16.3637V18.2546H24.3545V16.3637H22.0045ZM22.3606 25.6V27.491H24.7106V25.6H22.3606ZM29.4818 16.3637V18.2546H31.8318V16.3637H29.4818ZM36.9591 16.3637V18.2546H39.3091V16.3637H36.9591ZM37.3152 25.6V27.491H39.6652V25.6H37.3152ZM37.3152 25.6V27.491H39.6652V25.6H37.3152ZM36.9591 16.3637V18.2546H39.3091V16.3637H36.9591ZM29.4818 16.3637V18.2546H31.8318V16.3637H29.4818ZM22.3606 25.6V27.491H24.7106V25.6H22.3606ZM22.0045 16.3637V18.2546H24.3545V16.3637H22.0045ZM14.8121 25.6V27.491H17.1621V25.6H14.8121ZM7.69091 34.7637V36.6546H10.0409V34.7637H7.69091ZM7.33485 25.6V27.491H9.68485V25.6H7.33485ZM7.33485 25.6V27.491H9.68485V25.6H7.33485ZM7.69091 34.7637V36.6546H10.0409V34.7637H7.69091ZM14.8121 25.6V27.491H17.1621V25.6H14.8121ZM22.0045 16.3637V18.2546H24.3545V16.3637H22.0045ZM22.3606 25.6V27.491H24.7106V25.6H22.3606ZM29.4818 16.3637V18.2546H31.8318V16.3637H29.4818ZM36.9591 16.3637V18.2546H39.3091V16.3637H36.9591ZM37.3152 25.6V27.491H39.6652V25.6H37.3152ZM37.3152 25.6V27.491H39.6652V25.6H37.3152ZM36.9591 16.3637V18.2546H39.3091V16.3637H36.9591ZM29.4818 16.3637V18.2546H31.8318V16.3637H29.4818ZM22.3606 25.6V27.491H24.7106V25.6H22.3606ZM22.0045 16.3637V18.2546H24.3545V16.3637H22.0045ZM14.8121 25.6V27.491H17.1621V25.6H14.8121ZM7.69091 34.7637V36.6546H10.0409V34.7637H7.69091ZM7.33485 25.6V27.491H9.68485V25.6H7.33485ZM1.92273 11.7819V39.7819C1.92273 41.4546 3.27576 42.8364 4.91364 42.8364H22.0758C21.5061 41.5273 21.15 40.1455 21.15 38.691C21.15 33.891 24.497 29.8182 28.9121 28.8728C28.5561 28.8 28.3424 28.5091 28.3424 28.1455V24.8C28.3424 24.3637 28.6985 24.0728 29.0545 24.0728H32.8288C33.1849 24.0728 33.5409 24.3637 33.5409 24.8V28.1455C33.5409 28.5091 33.2561 28.8 32.9712 28.8728C37.4576 29.8182 40.8046 33.891 40.8046 38.691C40.8046 40.1455 40.4485 41.6 39.8788 42.8364H42.0152C43.653 42.8364 45.0061 41.4546 45.0061 39.7819V11.7819H1.92273ZM5.91061 28.1455V24.8C5.91061 24.3637 6.19546 24.0728 6.62273 24.0728H10.397C10.8242 24.0728 11.1091 24.3637 11.1091 24.8V28.1455C11.1091 28.5091 10.8242 28.8728 10.397 28.8728H6.62273C6.26667 28.8728 5.91061 28.5819 5.91061 28.1455ZM11.4652 37.3819C11.4652 37.7455 11.1091 38.1091 10.753 38.1091H6.97879C6.55152 38.1091 6.26667 37.7455 6.26667 37.3819V34.0364C6.26667 33.6728 6.55152 33.3091 6.97879 33.3091H10.753C11.1091 33.3091 11.4652 33.6728 11.4652 34.0364V37.3819ZM13.3879 28.1455V24.8C13.3879 24.3637 13.7439 24.0728 14.1 24.0728H17.8742C18.3015 24.0728 18.5864 24.3637 18.5864 24.8V28.1455C18.5864 28.5091 18.3015 28.8728 17.8742 28.8728H14.1C13.7439 28.8728 13.3879 28.5819 13.3879 28.1455ZM18.9424 37.3819C18.9424 37.7455 18.6576 38.1091 18.2303 38.1091H14.4561C14.1 38.1091 13.7439 37.7455 13.7439 37.3819V34.0364C13.7439 33.6728 14.1 33.3091 14.4561 33.3091H18.2303C18.6576 33.3091 18.9424 33.6728 18.9424 34.0364V37.3819ZM20.5803 18.9819V15.6364C20.5803 15.2 20.8652 14.9091 21.2924 14.9091H25.0667C25.4227 14.9091 25.7788 15.2 25.7788 15.6364V18.9819C25.7788 19.3455 25.4227 19.7091 25.0667 19.7091H21.2924C20.8652 19.7091 20.5803 19.4182 20.5803 18.9819ZM26.0636 28.1455C26.0636 28.5091 25.7788 28.8728 25.3515 28.8728H21.5773C21.15 28.8728 20.8652 28.5091 20.8652 28.1455V24.8C20.8652 24.3637 21.15 24.0728 21.5773 24.0728H25.3515C25.7788 24.0728 26.0636 24.3637 26.0636 24.8V28.1455ZM33.2561 18.9819C33.2561 19.3455 32.9 19.7091 32.5439 19.7091H28.7697C28.4136 19.7091 28.0576 19.3455 28.0576 18.9819V15.6364C28.0576 15.2 28.4136 14.9091 28.7697 14.9091H32.5439C32.9 14.9091 33.2561 15.2 33.2561 15.6364V18.9819ZM35.5349 18.9819V15.6364C35.5349 15.2 35.8197 14.9091 36.247 14.9091H40.0212C40.3773 14.9091 40.7333 15.2 40.7333 15.6364V18.9819C40.7333 19.3455 40.3773 19.7091 40.0212 19.7091H36.247C35.8197 19.7091 35.5349 19.4182 35.5349 18.9819ZM41.0894 28.1455C41.0894 28.5091 40.7333 28.8728 40.3773 28.8728H36.603C36.1758 28.8728 35.8909 28.5091 35.8909 28.1455V24.8C35.8909 24.3637 36.1758 24.0728 36.603 24.0728H40.3773C40.7333 24.0728 41.0894 24.3637 41.0894 24.8V28.1455ZM37.3152 27.4182H39.6652V25.5273H37.3152V27.4182ZM39.3091 16.3637H36.9591V18.2546H39.3091V16.3637ZM29.4818 18.2546H31.8318V16.3637H29.4818V18.2546ZM22.3606 27.4182H24.7106V25.5273H22.3606V27.4182ZM24.3545 16.3637H22.0045V18.2546H24.3545V16.3637ZM17.1621 25.6H14.8121V27.491H17.1621V25.6ZM7.69091 36.6546H10.0409V34.7637H7.69091V36.6546ZM9.68485 25.6H7.33485V27.491H9.68485V25.6ZM7.33485 25.6V27.491H9.68485V25.6H7.33485ZM7.69091 34.7637V36.6546H10.0409V34.7637H7.69091ZM14.8121 25.6V27.491H17.1621V25.6H14.8121ZM22.0045 16.3637V18.2546H24.3545V16.3637H22.0045ZM22.3606 25.6V27.491H24.7106V25.6H22.3606ZM29.4818 16.3637V18.2546H31.8318V16.3637H29.4818ZM36.9591 16.3637V18.2546H39.3091V16.3637H36.9591ZM37.3152 25.6V27.491H39.6652V25.6H37.3152ZM37.3152 25.6V27.491H39.6652V25.6H37.3152ZM36.9591 16.3637V18.2546H39.3091V16.3637H36.9591ZM29.4818 16.3637V18.2546H31.8318V16.3637H29.4818ZM22.3606 25.6V27.491H24.7106V25.6H22.3606ZM22.0045 16.3637V18.2546H24.3545V16.3637H22.0045ZM14.8121 25.6V27.491H17.1621V25.6H14.8121ZM7.69091 34.7637V36.6546H10.0409V34.7637H7.69091ZM7.33485 25.6V27.491H9.68485V25.6H7.33485ZM7.33485 25.6V27.491H9.68485V25.6H7.33485ZM7.69091 34.7637V36.6546H10.0409V34.7637H7.69091ZM14.8121 25.6V27.491H17.1621V25.6H14.8121ZM22.0045 16.3637V18.2546H24.3545V16.3637H22.0045ZM22.3606 25.6V27.491H24.7106V25.6H22.3606ZM29.4818 16.3637V18.2546H31.8318V16.3637H29.4818ZM37.3152 25.6V27.491H39.6652V25.6H37.3152ZM37.3152 25.6V27.491H39.6652V25.6H37.3152ZM29.4818 16.3637V18.2546H31.8318V16.3637H29.4818ZM22.3606 25.6V27.491H24.7106V25.6H22.3606ZM22.0045 16.3637V18.2546H24.3545V16.3637H22.0045ZM14.8121 25.6V27.491H17.1621V25.6H14.8121ZM7.69091 34.7637V36.6546H10.0409V34.7637H7.69091ZM7.33485 25.6V27.491H9.68485V25.6H7.33485ZM7.33485 25.6V27.491H9.68485V25.6H7.33485ZM7.69091 34.7637V36.6546H10.0409V34.7637H7.69091ZM14.8121 25.6V27.491H17.1621V25.6H14.8121ZM22.3606 25.6V27.491H24.7106V25.6H22.3606ZM37.3152 25.6V27.491H39.6652V25.6H37.3152ZM37.3152 25.6V27.491H39.6652V25.6H37.3152ZM22.3606 25.6V27.491H24.7106V25.6H22.3606ZM14.8121 25.6V27.491H17.1621V25.6H14.8121ZM7.69091 34.7637V36.6546H10.0409V34.7637H7.69091ZM7.33485 25.6V27.491H9.68485V25.6H7.33485ZM7.33485 25.6V27.491H9.68485V25.6H7.33485ZM7.69091 34.7637V36.6546H10.0409V34.7637H7.69091ZM14.8121 25.6V27.491H17.1621V25.6H14.8121ZM14.8121 25.6V27.491H17.1621V25.6H14.8121ZM7.69091 34.7637V36.6546H10.0409V34.7637H7.69091ZM7.33485 25.6V27.491H9.68485V25.6H7.33485ZM14.8121 25.6V27.491H17.1621V25.6H14.8121ZM14.8121 25.6V27.491H17.1621V25.6H14.8121Z" fill="#686195"/>
<path d="M30.9772 30.1091C26.3485 30.1091 22.5742 33.9637 22.5742 38.6909C22.5742 43.4182 26.3485 47.2728 30.9772 47.2728C35.606 47.2728 39.3803 43.4182 39.3803 38.6909C39.3803 33.9637 35.606 30.1091 30.9772 30.1091ZM35.4636 36.2909L29.6954 42.1819C29.553 42.3273 29.4106 42.4 29.1969 42.4C28.9833 42.4 28.8409 42.3273 28.6985 42.1819L26.4909 39.9273C26.206 39.6364 26.206 39.2 26.4909 38.9091C26.7757 38.6182 27.203 38.6182 27.4879 38.9091L29.1969 40.6546L34.4666 35.2728C34.7515 34.9819 35.1788 34.9819 35.4636 35.2728C35.7485 35.5637 35.7485 36 35.4636 36.2909Z" fill="#686195"/>
</svg>
