<svg width="52" height="52" viewBox="0 0 52 52" fill="none" xmlns="http://www.w3.org/2000/svg">
<path d="M26 1.625C21.1791 1.625 16.4664 3.05457 12.458 5.73293C8.44952 8.41129 5.32532 12.2181 3.48043 16.6721C1.63555 21.126 1.15284 26.027 2.09335 30.7553C3.03387 35.4836 5.35536 39.8268 8.76427 43.2357C12.1732 46.6446 16.5164 48.9661 21.2447 49.9066C25.973 50.8472 30.874 50.3645 35.3279 48.5196C39.7819 46.6747 43.5887 43.5505 46.2671 39.542C48.9454 35.5336 50.375 30.8209 50.375 26C50.375 19.5353 47.8069 13.3355 43.2357 8.76427C38.6645 4.19307 32.4646 1.625 26 1.625ZM27.0449 16.5978C29.2606 16.6003 31.3848 17.4817 32.9516 19.0484C34.5183 20.6152 35.3997 22.7394 35.4022 24.9551H33.3125C33.3108 23.2934 32.6499 21.7002 31.4748 20.5251C30.2998 19.3501 28.7066 18.6892 27.0449 18.6875V16.5978ZM33.813 40.625C33.7496 40.625 27.4755 40.5177 19.4074 32.5926C11.4822 24.5278 11.375 18.2504 11.375 18.187C11.375 17.4054 16.25 11.375 17.3274 11.375C17.7011 11.375 17.992 11.6285 18.3105 12.0088C19.0775 12.922 22.4689 18.2748 22.3129 19.1669C22.2381 19.5861 21.8822 19.9046 20.8617 20.761C20.3589 21.1563 19.8883 21.591 19.4545 22.061C19.6623 22.9209 19.971 23.7533 20.3742 24.5408C21.8766 27.6298 24.3728 30.1248 27.4625 31.6258C28.2499 32.029 29.0823 32.3377 29.9422 32.5455C30.4122 32.1117 30.8469 31.6411 31.2422 31.1383C32.0986 30.1178 32.4171 29.7619 32.8364 29.6871C33.7285 29.5246 39.0812 32.9225 39.9945 33.6895C40.3747 34.0145 40.6283 34.2989 40.6283 34.6726C40.625 35.75 34.5946 40.625 33.813 40.625ZM38.5352 24.9551C38.5318 21.9087 37.3201 18.9881 35.166 16.834C33.0119 14.6799 30.0913 13.4682 27.0449 13.4648V11.375C30.6452 11.3793 34.0969 12.8114 36.6427 15.3573C39.1886 17.9031 40.6207 21.3548 40.625 24.9551H38.5352Z" fill="#686195"/>
</svg>
