<svg width="43" height="42" viewBox="0 0 43 42" fill="none" xmlns="http://www.w3.org/2000/svg">
<path d="M20.6007 33.7629C24.6779 33.7629 27.995 30.523 27.995 26.5403C27.995 22.558 24.6779 19.3181 20.6007 19.3181C16.5233 19.3181 13.2062 22.558 13.2062 26.5403C13.2062 30.5229 16.5232 33.7629 20.6007 33.7629ZM16.2447 25.4038C16.7309 24.9286 17.5193 24.9286 18.0058 25.4038L19.631 26.9912L23.1957 23.5094C23.6822 23.0344 24.4706 23.0344 24.9569 23.5094C25.443 23.9842 25.443 24.7543 24.9569 25.2295L20.5116 29.5714C20.2779 29.7994 19.9614 29.9274 19.631 29.9274C19.3006 29.9274 18.984 29.7994 18.7505 29.5714L16.2447 27.1236C15.7585 26.6486 15.7585 25.8787 16.2447 25.4038Z" fill="#686195"/>
<path d="M0 38.0666C0 40.2354 1.80667 42 4.02705 42H37.1739C39.3942 42 41.201 40.2354 41.201 38.0666V13.513H0V38.0666ZM20.6008 16.8857C26.0512 16.8857 30.4853 21.2167 30.4853 26.5403C30.4853 31.8641 26.0512 36.1954 20.6008 36.1954C15.1504 36.1954 10.7158 31.8641 10.7158 26.5403C10.7158 21.2167 15.1504 16.8857 20.6008 16.8857ZM41.2005 11.0806V7.33377C41.2005 5.16478 39.3942 3.40045 37.1736 3.40045H34.9034V5.58486C34.9034 6.25711 34.3453 6.80089 33.6581 6.80089C32.9701 6.80089 32.413 6.25711 32.413 5.58486V3.40045H29.9657V5.58486C29.9657 6.25711 29.4089 6.80089 28.7207 6.80089C28.0334 6.80089 27.4753 6.25711 27.4753 5.58486V3.40045H13.7262V5.58486C13.7262 6.25711 13.1685 6.80089 12.4812 6.80089C11.7929 6.80089 11.2358 6.25711 11.2358 5.58486V3.40045H8.7888V5.58486C8.7888 6.25711 8.2308 6.80089 7.54348 6.80089C6.85623 6.80089 6.29849 6.25711 6.29849 5.58486V3.40045H4.0273C1.80667 3.40045 0.000251953 5.16478 0.000251953 7.33385V11.0806H41.2005Z" fill="#686195"/>
<path d="M34.9034 1.21603C34.9034 0.54477 34.3453 0 33.6581 0C32.9701 0 32.413 0.544688 32.413 1.21603V3.40052H34.9034V1.21603ZM29.9656 1.21603C29.9656 0.54477 29.409 0 28.7208 0C28.0334 0 27.4754 0.544688 27.4754 1.21603V3.40052H29.9658L29.9656 1.21603ZM13.7262 1.21603C13.7262 0.54477 13.1685 0 12.4811 0C11.7929 0 11.2358 0.544688 11.2358 1.21603V3.40052H13.7262V1.21603ZM8.78877 1.21603C8.78877 0.54477 8.23077 0 7.54345 0C6.8562 0 6.29846 0.544688 6.29846 1.21603V3.40052H8.78877V1.21603Z" fill="#686195"/>
</svg>
