<svg width="160" height="160" viewBox="0 0 160 160" fill="none" xmlns="http://www.w3.org/2000/svg">
<path fill-rule="evenodd" clip-rule="evenodd" d="M146.333 79.9999C146.333 116.819 116.485 146.667 79.6667 146.667C42.8477 146.667 13 116.819 13 79.9999C13 43.1809 42.8477 13.3333 79.6667 13.3333C116.485 13.3333 146.333 43.1809 146.333 79.9999ZM99.6667 59.9999C99.6667 71.0459 90.7127 79.9999 79.6667 79.9999C68.6207 79.9999 59.6667 71.0459 59.6667 59.9999C59.6667 48.9542 68.6207 39.9999 79.6667 39.9999C90.7127 39.9999 99.6667 48.9542 99.6667 59.9999ZM79.6667 136.667C91.56 136.667 102.598 133.003 111.713 126.741C115.739 123.976 117.459 118.708 115.119 114.421C110.267 105.535 100.268 99.9999 79.666 99.9999C59.0646 99.9999 49.0665 105.535 44.2143 114.421C41.8737 118.708 43.594 123.975 47.6197 126.741C56.7345 133.002 67.7727 136.667 79.6667 136.667Z" fill="#686195"/>
</svg>
