<svg width="48" height="48" viewBox="0 0 48 48" fill="none" xmlns="http://www.w3.org/2000/svg">
<g clip-path="url(#clip0_1_400)">
<path d="M38.6875 45.4632C39.1078 45.4631 39.5118 45.6262 39.8141 45.9182C41.7889 47.8251 44.6695 48.46 47.2302 47.6653C45.5822 44.232 45.3538 40.2986 46.6309 36.6567C48.2159 32.1254 48.6131 27.5837 46.8093 23.0287C45.2245 19.0272 42.1664 15.7028 38.2962 13.807C38.535 15.0831 38.6549 16.3786 38.6543 17.6768C38.6544 23.2247 36.521 28.4427 32.6475 32.3697C28.7735 36.2971 23.5805 38.5055 18.0252 38.5881C16.997 38.6039 15.9691 38.5443 14.9497 38.4096C18.0028 43.7613 23.7609 47.2467 30.0884 47.3406C32.8563 47.3834 35.5141 46.8034 37.9891 45.6215C38.2072 45.5172 38.4458 45.4631 38.6875 45.4632Z" fill="#686195"/>
<path d="M18.0708 0.0036489C8.21581 -0.192034 0.0236174 7.78048 -0.000144927 17.6333C-0.00596671 20.0406 0.463934 22.3745 1.39661 24.5706C1.41015 24.6026 1.42275 24.6349 1.43415 24.6677C2.71126 28.3096 2.48302 32.2429 0.834865 35.6763C3.39585 36.4707 6.27609 35.8361 8.25098 33.9291C8.48869 33.6995 8.79087 33.5481 9.11704 33.4951C9.4432 33.4421 9.77778 33.4901 10.0759 33.6325C12.5507 34.8145 15.2087 35.3962 17.9766 35.3517C27.7544 35.2065 35.4136 27.4428 35.4135 17.6768C35.4136 8.12397 27.6336 0.195887 18.0708 0.0036489ZM8.26168 20.3168C6.8458 20.3168 5.69795 19.1709 5.69795 17.7574C5.69795 16.3438 6.8458 15.1979 8.26168 15.1979C9.67756 15.1979 10.8254 16.3438 10.8254 17.7574C10.8253 19.1709 9.67756 20.3168 8.26168 20.3168ZM17.7067 20.3168C16.2909 20.3168 15.143 19.1709 15.143 17.7574C15.143 16.3438 16.2909 15.1979 17.7067 15.1979C19.1226 15.1979 20.2705 16.3438 20.2705 17.7574C20.2705 19.1709 19.1226 20.3168 17.7067 20.3168ZM27.1519 20.3168C25.7361 20.3168 24.5882 19.1709 24.5882 17.7574C24.5882 16.3438 25.7361 15.1979 27.1519 15.1979C28.5678 15.1979 29.7157 16.3438 29.7157 17.7574C29.7157 19.1709 28.5678 20.3168 27.1519 20.3168Z" fill="#686195"/>
</g>
<defs>
<clipPath id="clip0_1_400">
<rect width="48" height="48" fill="white"/>
</clipPath>
</defs>
</svg>
