<svg width="23" height="23" viewBox="0 0 23 23" fill="none" xmlns="http://www.w3.org/2000/svg">
<path d="M9.97222 0.0284921C4.47325 0.0284921 0 4.50174 0 10.0007C0 15.4997 4.47325 19.9729 9.97222 19.9729C11.6532 19.9729 13.3058 19.574 14.7019 18.8048C14.8137 18.9393 14.9377 19.0633 15.0723 19.1752L17.9215 22.0244C18.1846 22.3204 18.5054 22.5595 18.8643 22.7271C19.2231 22.8946 19.6124 22.9871 20.0083 22.9987C20.4042 23.0104 20.7982 22.941 21.1663 22.7949C21.5344 22.6487 21.8688 22.4288 22.1488 22.1488C22.4288 21.8688 22.6487 21.5344 22.7949 21.1663C22.941 20.7982 23.0104 20.4042 22.9987 20.0083C22.9871 19.6124 22.8946 19.2231 22.7271 18.8643C22.5595 18.5054 22.3204 18.1846 22.0244 17.9215L19.1752 15.0723C19.0364 14.9335 18.8836 14.8093 18.7193 14.7019C19.4886 13.3058 19.9729 11.6817 19.9729 9.97222C19.9729 4.47325 15.4997 0 10.0007 0L9.97222 0.0284921ZM9.97222 2.8777C13.9326 2.8777 17.0952 6.04032 17.0952 10.0007C17.0952 11.8812 16.4114 13.6192 15.2148 14.9013C15.1863 14.9298 15.1578 14.9583 15.1293 14.9868C14.9947 15.0986 14.8707 15.2226 14.7589 15.3572C13.5052 16.4969 11.7957 17.1522 9.94373 17.1522C5.98333 17.1522 2.82071 13.9896 2.82071 10.0292C2.82071 6.06881 5.98333 2.90619 9.94373 2.90619L9.97222 2.8777Z" fill="#702FA0"/>
</svg>
