<svg width="134" height="133" viewBox="0 0 134 133" fill="none" xmlns="http://www.w3.org/2000/svg">
<circle cx="67.1667" cy="66.5" r="66.5" fill="#686195"/>
<path d="M66.5999 53.6C76.4306 53.6 84.3999 45.6306 84.3999 35.8C84.3999 25.9693 76.4306 18 66.5999 18C56.7693 18 48.8 25.9693 48.8 35.8C48.8 45.6306 56.7693 53.6 66.5999 53.6Z" fill="white"/>
<path fill-rule="evenodd" clip-rule="evenodd" d="M86.6249 107C79.2829 107 75.6116 107 73.331 104.719C71.05 102.438 71.05 98.7669 71.05 91.4248C71.05 84.0828 71.05 80.4115 73.331 78.1309C75.6116 75.8499 79.2829 75.8499 86.6249 75.8499C93.967 75.8499 97.6382 75.8499 99.9189 78.1309C102.2 80.4115 102.2 84.0828 102.2 91.4248C102.2 98.7669 102.2 102.438 99.9189 104.719C97.6382 107 93.967 107 86.6249 107ZM89.2206 84.5024C89.2206 83.0691 88.0587 81.9067 86.6249 81.9067C85.1911 81.9067 84.0293 83.0691 84.0293 84.5024V88.8292H79.7025C78.2692 88.8292 77.1068 89.991 77.1068 91.4248C77.1068 92.8586 78.2692 94.0205 79.7025 94.0205H84.0293V98.3472C84.0293 99.7806 85.1911 100.943 86.6249 100.943C88.0587 100.943 89.2206 99.7806 89.2206 98.3472V94.0205H93.5473C94.9807 94.0205 96.143 92.8586 96.143 91.4248C96.143 89.991 94.9807 88.8292 93.5473 88.8292H89.2206V84.5024Z" fill="white"/>
<path d="M82.9679 69.1874C80.8626 69.2128 78.9006 69.2898 77.1905 69.5194C74.3296 69.9043 71.1986 70.8237 68.6109 73.4109C66.0237 75.9981 65.1043 79.1296 64.7198 81.9905C64.3741 84.5612 64.3745 87.7025 64.375 91.0422V91.8076C64.3745 95.1473 64.3741 98.2886 64.7198 100.859C64.9895 102.867 65.5226 105.007 66.7108 107C66.6738 107 66.6369 107 66.6 107C31 107 31 98.0345 31 86.9749C31 75.9154 46.9386 66.95 66.6 66.95C72.5015 66.95 78.0676 67.7576 82.9679 69.1874Z" fill="white"/>
</svg>
